<mxfile host="app.diagrams.net" modified="2023-05-16T18:19:03.502Z" agent="Mozilla/5.0 (Windows NT 10.0; Win64; x64) AppleWebKit/537.36 (KHTML, like Gecko) Chrome/112.0.0.0 Safari/537.36 OPR/98.0.0.0 (Edition std-1)" etag="CqnGk69dfVVLrgJQjrlx" version="21.3.2" type="github">
  <diagram id="SVCtMeEv8MGSSq_j8fSX" name="Página-1">
    <mxGraphModel dx="915" dy="1415" grid="0" gridSize="10" guides="1" tooltips="1" connect="1" arrows="1" fold="1" page="0" pageScale="1" pageWidth="827" pageHeight="1169" math="0" shadow="0">
      <root>
        <mxCell id="0" />
        <mxCell id="1" parent="0" />
        <mxCell id="2XDpb6E2xOAsi45T7SNK-6" value="&lt;div style=&quot;&quot;&gt;usuario&lt;/div&gt;" style="swimlane;whiteSpace=wrap;html=1;fontSize=16;align=left;" parent="1" vertex="1">
          <mxGeometry x="574" y="897" width="803" height="383" as="geometry" />
        </mxCell>
        <mxCell id="2XDpb6E2xOAsi45T7SNK-10" value="Pagina web" style="swimlane;whiteSpace=wrap;html=1;fontSize=16;align=left;" parent="2XDpb6E2xOAsi45T7SNK-6" vertex="1">
          <mxGeometry x="203" width="600" height="383" as="geometry" />
        </mxCell>
        <mxCell id="2XDpb6E2xOAsi45T7SNK-11" value="Api" style="swimlane;whiteSpace=wrap;html=1;fontSize=16;align=left;" parent="2XDpb6E2xOAsi45T7SNK-10" vertex="1">
          <mxGeometry x="200" width="400" height="383" as="geometry" />
        </mxCell>
        <mxCell id="2XDpb6E2xOAsi45T7SNK-12" value="Base de datos" style="swimlane;whiteSpace=wrap;html=1;fontSize=16;align=left;" parent="2XDpb6E2xOAsi45T7SNK-11" vertex="1">
          <mxGeometry x="200" y="-2" width="200" height="385" as="geometry" />
        </mxCell>
        <mxCell id="2XDpb6E2xOAsi45T7SNK-60" style="edgeStyle=none;curved=1;rounded=0;orthogonalLoop=1;jettySize=auto;html=1;entryX=0.5;entryY=0;entryDx=0;entryDy=0;fontSize=12;startSize=8;endSize=8;" parent="2XDpb6E2xOAsi45T7SNK-12" source="2XDpb6E2xOAsi45T7SNK-57" target="2XDpb6E2xOAsi45T7SNK-59" edge="1">
          <mxGeometry relative="1" as="geometry" />
        </mxCell>
        <mxCell id="2XDpb6E2xOAsi45T7SNK-57" value="Generación de consulta" style="rounded=0;whiteSpace=wrap;html=1;fontSize=16;" parent="2XDpb6E2xOAsi45T7SNK-12" vertex="1">
          <mxGeometry x="57" y="146" width="120" height="60" as="geometry" />
        </mxCell>
        <mxCell id="2XDpb6E2xOAsi45T7SNK-59" value="Resultado de la consulta" style="rounded=0;whiteSpace=wrap;html=1;fontSize=16;" parent="2XDpb6E2xOAsi45T7SNK-12" vertex="1">
          <mxGeometry x="59" y="260" width="120" height="60" as="geometry" />
        </mxCell>
        <mxCell id="2XDpb6E2xOAsi45T7SNK-58" style="edgeStyle=none;curved=1;rounded=0;orthogonalLoop=1;jettySize=auto;html=1;entryX=0;entryY=0.5;entryDx=0;entryDy=0;fontSize=12;startSize=8;endSize=8;" parent="2XDpb6E2xOAsi45T7SNK-11" source="2XDpb6E2xOAsi45T7SNK-49" target="2XDpb6E2xOAsi45T7SNK-57" edge="1">
          <mxGeometry relative="1" as="geometry" />
        </mxCell>
        <mxCell id="2XDpb6E2xOAsi45T7SNK-49" value="Consulta de datos dinámicos de productos&amp;nbsp;" style="rounded=0;whiteSpace=wrap;html=1;fontSize=16;" parent="2XDpb6E2xOAsi45T7SNK-11" vertex="1">
          <mxGeometry x="30" y="144" width="120" height="60" as="geometry" />
        </mxCell>
        <mxCell id="2XDpb6E2xOAsi45T7SNK-61" value="Obtención de datos" style="rounded=0;whiteSpace=wrap;html=1;fontSize=16;" parent="2XDpb6E2xOAsi45T7SNK-11" vertex="1">
          <mxGeometry x="47" y="258" width="120" height="60" as="geometry" />
        </mxCell>
        <mxCell id="2XDpb6E2xOAsi45T7SNK-63" style="edgeStyle=none;curved=1;rounded=0;orthogonalLoop=1;jettySize=auto;html=1;fontSize=12;startSize=8;endSize=8;" parent="2XDpb6E2xOAsi45T7SNK-11" source="2XDpb6E2xOAsi45T7SNK-59" target="2XDpb6E2xOAsi45T7SNK-61" edge="1">
          <mxGeometry relative="1" as="geometry" />
        </mxCell>
        <mxCell id="2XDpb6E2xOAsi45T7SNK-56" style="edgeStyle=none;curved=1;rounded=0;orthogonalLoop=1;jettySize=auto;html=1;entryX=0;entryY=0.5;entryDx=0;entryDy=0;fontSize=12;startSize=8;endSize=8;" parent="2XDpb6E2xOAsi45T7SNK-10" source="2XDpb6E2xOAsi45T7SNK-45" target="2XDpb6E2xOAsi45T7SNK-49" edge="1">
          <mxGeometry relative="1" as="geometry" />
        </mxCell>
        <mxCell id="2XDpb6E2xOAsi45T7SNK-45" value="Carga pagina emergente" style="rounded=0;whiteSpace=wrap;html=1;fontSize=16;" parent="2XDpb6E2xOAsi45T7SNK-10" vertex="1">
          <mxGeometry x="31" y="144" width="120" height="60" as="geometry" />
        </mxCell>
        <mxCell id="2XDpb6E2xOAsi45T7SNK-47" style="edgeStyle=none;curved=1;rounded=0;orthogonalLoop=1;jettySize=auto;html=1;fontSize=12;startSize=8;endSize=8;" parent="2XDpb6E2xOAsi45T7SNK-6" source="2XDpb6E2xOAsi45T7SNK-44" target="2XDpb6E2xOAsi45T7SNK-46" edge="1">
          <mxGeometry relative="1" as="geometry" />
        </mxCell>
        <mxCell id="2XDpb6E2xOAsi45T7SNK-44" value="Abre pagina web" style="rounded=0;whiteSpace=wrap;html=1;fontSize=16;" parent="2XDpb6E2xOAsi45T7SNK-6" vertex="1">
          <mxGeometry x="45" y="54" width="120" height="60" as="geometry" />
        </mxCell>
        <mxCell id="2XDpb6E2xOAsi45T7SNK-48" style="edgeStyle=none;curved=1;rounded=0;orthogonalLoop=1;jettySize=auto;html=1;entryX=0;entryY=0.5;entryDx=0;entryDy=0;fontSize=12;startSize=8;endSize=8;startArrow=classic;startFill=1;" parent="2XDpb6E2xOAsi45T7SNK-6" source="2XDpb6E2xOAsi45T7SNK-46" target="2XDpb6E2xOAsi45T7SNK-45" edge="1">
          <mxGeometry relative="1" as="geometry" />
        </mxCell>
        <mxCell id="2XDpb6E2xOAsi45T7SNK-46" value="Seleciona un producto&amp;nbsp;" style="rounded=0;whiteSpace=wrap;html=1;fontSize=16;" parent="2XDpb6E2xOAsi45T7SNK-6" vertex="1">
          <mxGeometry x="49" y="144" width="120" height="60" as="geometry" />
        </mxCell>
        <mxCell id="2XDpb6E2xOAsi45T7SNK-62" value="Carga de pagina &amp;nbsp;producto completa" style="rounded=0;whiteSpace=wrap;html=1;fontSize=16;" parent="2XDpb6E2xOAsi45T7SNK-6" vertex="1">
          <mxGeometry x="45" y="242" width="131" height="86" as="geometry" />
        </mxCell>
        <mxCell id="2XDpb6E2xOAsi45T7SNK-64" style="edgeStyle=none;curved=1;rounded=0;orthogonalLoop=1;jettySize=auto;html=1;fontSize=12;startSize=8;endSize=8;" parent="2XDpb6E2xOAsi45T7SNK-6" source="2XDpb6E2xOAsi45T7SNK-61" target="2XDpb6E2xOAsi45T7SNK-62" edge="1">
          <mxGeometry relative="1" as="geometry" />
        </mxCell>
        <mxCell id="2XDpb6E2xOAsi45T7SNK-13" value="Modelo de procesos" style="rounded=1;whiteSpace=wrap;html=1;fontSize=16;" parent="1" vertex="1">
          <mxGeometry x="773.5" y="240" width="384" height="60" as="geometry" />
        </mxCell>
        <mxCell id="2XDpb6E2xOAsi45T7SNK-14" value="&lt;div style=&quot;&quot;&gt;usuario&lt;/div&gt;" style="swimlane;whiteSpace=wrap;html=1;fontSize=16;align=left;" parent="1" vertex="1">
          <mxGeometry x="574" y="382" width="803" height="383" as="geometry" />
        </mxCell>
        <mxCell id="2XDpb6E2xOAsi45T7SNK-15" value="Pagina web" style="swimlane;whiteSpace=wrap;html=1;fontSize=16;align=left;" parent="2XDpb6E2xOAsi45T7SNK-14" vertex="1">
          <mxGeometry x="203" width="600" height="383" as="geometry" />
        </mxCell>
        <mxCell id="2XDpb6E2xOAsi45T7SNK-16" value="Api" style="swimlane;whiteSpace=wrap;html=1;fontSize=16;align=left;" parent="2XDpb6E2xOAsi45T7SNK-15" vertex="1">
          <mxGeometry x="200" width="400" height="383" as="geometry" />
        </mxCell>
        <mxCell id="2XDpb6E2xOAsi45T7SNK-31" style="edgeStyle=none;curved=1;rounded=0;orthogonalLoop=1;jettySize=auto;html=1;fontSize=12;startSize=8;endSize=8;" parent="2XDpb6E2xOAsi45T7SNK-16" source="2XDpb6E2xOAsi45T7SNK-23" target="2XDpb6E2xOAsi45T7SNK-30" edge="1">
          <mxGeometry relative="1" as="geometry" />
        </mxCell>
        <mxCell id="2XDpb6E2xOAsi45T7SNK-54" value="Consulta&lt;br&gt;A:" style="edgeLabel;html=1;align=center;verticalAlign=middle;resizable=0;points=[];fontSize=16;" parent="2XDpb6E2xOAsi45T7SNK-31" vertex="1" connectable="0">
          <mxGeometry x="-0.3121" y="1" relative="1" as="geometry">
            <mxPoint as="offset" />
          </mxGeometry>
        </mxCell>
        <mxCell id="2XDpb6E2xOAsi45T7SNK-17" value="Base de datos" style="swimlane;whiteSpace=wrap;html=1;fontSize=16;align=left;" parent="2XDpb6E2xOAsi45T7SNK-16" vertex="1">
          <mxGeometry x="200" y="-2" width="200" height="385" as="geometry" />
        </mxCell>
        <mxCell id="2XDpb6E2xOAsi45T7SNK-34" style="edgeStyle=none;curved=1;rounded=0;orthogonalLoop=1;jettySize=auto;html=1;fontSize=12;startSize=8;endSize=8;" parent="2XDpb6E2xOAsi45T7SNK-17" source="2XDpb6E2xOAsi45T7SNK-30" target="2XDpb6E2xOAsi45T7SNK-32" edge="1">
          <mxGeometry relative="1" as="geometry" />
        </mxCell>
        <mxCell id="2XDpb6E2xOAsi45T7SNK-55" value="Genera" style="edgeLabel;html=1;align=center;verticalAlign=middle;resizable=0;points=[];fontSize=16;" parent="2XDpb6E2xOAsi45T7SNK-34" vertex="1" connectable="0">
          <mxGeometry x="-0.2479" y="-7" relative="1" as="geometry">
            <mxPoint as="offset" />
          </mxGeometry>
        </mxCell>
        <mxCell id="2XDpb6E2xOAsi45T7SNK-30" value="Gestión de consulta" style="rounded=0;whiteSpace=wrap;html=1;fontSize=16;" parent="2XDpb6E2xOAsi45T7SNK-17" vertex="1">
          <mxGeometry x="64" y="54.5" width="120" height="60" as="geometry" />
        </mxCell>
        <mxCell id="2XDpb6E2xOAsi45T7SNK-32" value="Resultados de los datos" style="rounded=0;whiteSpace=wrap;html=1;fontSize=16;" parent="2XDpb6E2xOAsi45T7SNK-17" vertex="1">
          <mxGeometry x="67" y="205" width="120" height="60" as="geometry" />
        </mxCell>
        <mxCell id="2XDpb6E2xOAsi45T7SNK-23" value="Consulta de datos dinámicos&amp;nbsp;" style="rounded=0;whiteSpace=wrap;html=1;fontSize=16;" parent="2XDpb6E2xOAsi45T7SNK-16" vertex="1">
          <mxGeometry x="44" y="44" width="118" height="77" as="geometry" />
        </mxCell>
        <mxCell id="2XDpb6E2xOAsi45T7SNK-35" value="Obtención de datos y distribución&amp;nbsp;" style="rounded=0;whiteSpace=wrap;html=1;fontSize=16;" parent="2XDpb6E2xOAsi45T7SNK-16" vertex="1">
          <mxGeometry x="39" y="203" width="120" height="60" as="geometry" />
        </mxCell>
        <mxCell id="2XDpb6E2xOAsi45T7SNK-36" style="edgeStyle=none;curved=1;rounded=0;orthogonalLoop=1;jettySize=auto;html=1;entryX=1;entryY=0.5;entryDx=0;entryDy=0;fontSize=12;startSize=8;endSize=8;" parent="2XDpb6E2xOAsi45T7SNK-16" source="2XDpb6E2xOAsi45T7SNK-32" target="2XDpb6E2xOAsi45T7SNK-35" edge="1">
          <mxGeometry relative="1" as="geometry" />
        </mxCell>
        <mxCell id="2XDpb6E2xOAsi45T7SNK-28" style="edgeStyle=none;curved=1;rounded=0;orthogonalLoop=1;jettySize=auto;html=1;fontSize=12;startSize=8;endSize=8;" parent="2XDpb6E2xOAsi45T7SNK-15" source="2XDpb6E2xOAsi45T7SNK-21" target="2XDpb6E2xOAsi45T7SNK-23" edge="1">
          <mxGeometry relative="1" as="geometry" />
        </mxCell>
        <mxCell id="2XDpb6E2xOAsi45T7SNK-52" value="Consulta&lt;br&gt;Endpoints" style="edgeLabel;html=1;align=center;verticalAlign=middle;resizable=0;points=[];fontSize=16;" parent="2XDpb6E2xOAsi45T7SNK-28" vertex="1" connectable="0">
          <mxGeometry x="-0.1311" y="2" relative="1" as="geometry">
            <mxPoint as="offset" />
          </mxGeometry>
        </mxCell>
        <mxCell id="2XDpb6E2xOAsi45T7SNK-21" value="Carga de interfaz" style="rounded=0;whiteSpace=wrap;html=1;fontSize=16;" parent="2XDpb6E2xOAsi45T7SNK-15" vertex="1">
          <mxGeometry x="59" y="57.5" width="97" height="56" as="geometry" />
        </mxCell>
        <mxCell id="2XDpb6E2xOAsi45T7SNK-26" value="Consulta y &lt;br&gt;entrega&lt;br&gt;&amp;nbsp;de interfaz" style="edgeStyle=none;curved=1;rounded=0;orthogonalLoop=1;jettySize=auto;html=1;fontSize=12;startSize=8;endSize=8;entryX=0;entryY=0.5;entryDx=0;entryDy=0;startArrow=classic;startFill=1;" parent="2XDpb6E2xOAsi45T7SNK-14" source="2XDpb6E2xOAsi45T7SNK-19" target="2XDpb6E2xOAsi45T7SNK-21" edge="1">
          <mxGeometry relative="1" as="geometry">
            <mxPoint x="237.17391304347825" y="85.50000000000023" as="targetPoint" />
          </mxGeometry>
        </mxCell>
        <mxCell id="2XDpb6E2xOAsi45T7SNK-19" value="Abre pagina web en su pc" style="rounded=0;whiteSpace=wrap;html=1;fontSize=16;" parent="2XDpb6E2xOAsi45T7SNK-14" vertex="1">
          <mxGeometry x="47" y="47" width="120" height="77" as="geometry" />
        </mxCell>
        <mxCell id="2XDpb6E2xOAsi45T7SNK-37" value="Interfaz cargada" style="rounded=0;whiteSpace=wrap;html=1;fontSize=16;" parent="2XDpb6E2xOAsi45T7SNK-14" vertex="1">
          <mxGeometry x="47" y="205" width="120" height="60" as="geometry" />
        </mxCell>
        <mxCell id="2XDpb6E2xOAsi45T7SNK-38" value="Envió de datos" style="edgeStyle=none;curved=1;rounded=0;orthogonalLoop=1;jettySize=auto;html=1;fontSize=12;startSize=8;endSize=8;entryX=1;entryY=0.5;entryDx=0;entryDy=0;" parent="2XDpb6E2xOAsi45T7SNK-14" source="2XDpb6E2xOAsi45T7SNK-35" target="2XDpb6E2xOAsi45T7SNK-37" edge="1">
          <mxGeometry relative="1" as="geometry">
            <mxPoint x="196" y="233" as="targetPoint" />
            <Array as="points" />
          </mxGeometry>
        </mxCell>
        <mxCell id="2XDpb6E2xOAsi45T7SNK-18" value="Abrir pagina" style="rounded=1;whiteSpace=wrap;html=1;fontSize=16;" parent="1" vertex="1">
          <mxGeometry x="927.5" y="300" width="120" height="60" as="geometry" />
        </mxCell>
        <mxCell id="2XDpb6E2xOAsi45T7SNK-39" value="Consultar producto" style="rounded=1;whiteSpace=wrap;html=1;fontSize=16;" parent="1" vertex="1">
          <mxGeometry x="820" y="809" width="335" height="60" as="geometry" />
        </mxCell>
        <mxCell id="2XDpb6E2xOAsi45T7SNK-40" value="&lt;div style=&quot;&quot;&gt;usuario&lt;/div&gt;" style="swimlane;whiteSpace=wrap;html=1;fontSize=16;align=left;" parent="1" vertex="1">
          <mxGeometry x="564" y="1400" width="803" height="383" as="geometry" />
        </mxCell>
        <mxCell id="2XDpb6E2xOAsi45T7SNK-41" value="Pagina web" style="swimlane;whiteSpace=wrap;html=1;fontSize=16;align=left;" parent="2XDpb6E2xOAsi45T7SNK-40" vertex="1">
          <mxGeometry x="203" width="600" height="383" as="geometry" />
        </mxCell>
        <mxCell id="2XDpb6E2xOAsi45T7SNK-42" value="Api" style="swimlane;whiteSpace=wrap;html=1;fontSize=16;align=left;" parent="2XDpb6E2xOAsi45T7SNK-41" vertex="1">
          <mxGeometry x="200" width="400" height="383" as="geometry" />
        </mxCell>
        <mxCell id="2XDpb6E2xOAsi45T7SNK-43" value="Base de datos" style="swimlane;whiteSpace=wrap;html=1;fontSize=16;align=left;" parent="2XDpb6E2xOAsi45T7SNK-42" vertex="1">
          <mxGeometry x="200" y="-2" width="200" height="385" as="geometry" />
        </mxCell>
        <mxCell id="2XDpb6E2xOAsi45T7SNK-65" value="Modelo físico&amp;nbsp;" style="rounded=1;whiteSpace=wrap;html=1;fontSize=16;" parent="1" vertex="1">
          <mxGeometry x="551" y="2023" width="725" height="60" as="geometry" />
        </mxCell>
        <mxCell id="2XDpb6E2xOAsi45T7SNK-66" value="" style="whiteSpace=wrap;html=1;aspect=fixed;fontSize=16;" parent="1" vertex="1">
          <mxGeometry x="603" y="2093" width="632" height="632" as="geometry" />
        </mxCell>
        <mxCell id="2XDpb6E2xOAsi45T7SNK-69" value="Usuario" style="text;html=1;strokeColor=none;fillColor=none;align=center;verticalAlign=middle;whiteSpace=wrap;rounded=0;fontSize=16;" parent="1" vertex="1">
          <mxGeometry x="631" y="2279" width="67" height="26" as="geometry" />
        </mxCell>
        <mxCell id="2XDpb6E2xOAsi45T7SNK-73" value="Computadora" style="text;html=1;strokeColor=none;fillColor=none;align=center;verticalAlign=middle;whiteSpace=wrap;rounded=0;fontSize=16;" parent="1" vertex="1">
          <mxGeometry x="846" y="2277" width="60" height="30" as="geometry" />
        </mxCell>
        <mxCell id="2XDpb6E2xOAsi45T7SNK-81" style="edgeStyle=none;curved=1;rounded=0;orthogonalLoop=1;jettySize=auto;html=1;entryX=0.58;entryY=0.02;entryDx=0;entryDy=0;entryPerimeter=0;fontSize=12;startSize=8;endSize=8;startArrow=classic;startFill=1;" parent="1" source="2XDpb6E2xOAsi45T7SNK-76" target="2XDpb6E2xOAsi45T7SNK-79" edge="1">
          <mxGeometry relative="1" as="geometry" />
        </mxCell>
        <mxCell id="2XDpb6E2xOAsi45T7SNK-76" value="" style="verticalLabelPosition=bottom;html=1;verticalAlign=top;align=center;strokeColor=none;fillColor=#00BEF2;shape=mxgraph.azure.computer;pointerEvents=1;fontSize=16;" parent="1" vertex="1">
          <mxGeometry x="852" y="2232" width="48" height="45" as="geometry" />
        </mxCell>
        <mxCell id="2XDpb6E2xOAsi45T7SNK-78" style="edgeStyle=none;curved=1;rounded=0;orthogonalLoop=1;jettySize=auto;html=1;entryX=0;entryY=0.5;entryDx=0;entryDy=0;entryPerimeter=0;fontSize=12;startSize=8;endSize=8;" parent="1" source="2XDpb6E2xOAsi45T7SNK-77" target="2XDpb6E2xOAsi45T7SNK-76" edge="1">
          <mxGeometry relative="1" as="geometry" />
        </mxCell>
        <mxCell id="2XDpb6E2xOAsi45T7SNK-77" value="" style="verticalLabelPosition=bottom;html=1;verticalAlign=top;align=center;strokeColor=none;fillColor=#00BEF2;shape=mxgraph.azure.user;fontSize=16;" parent="1" vertex="1">
          <mxGeometry x="640.75" y="2227" width="47.5" height="50" as="geometry" />
        </mxCell>
        <mxCell id="2XDpb6E2xOAsi45T7SNK-79" value="" style="verticalLabelPosition=bottom;html=1;verticalAlign=top;align=center;strokeColor=none;fillColor=#00BEF2;shape=mxgraph.azure.storsimple;fontSize=16;" parent="1" vertex="1">
          <mxGeometry x="824" y="2402" width="87" height="82" as="geometry" />
        </mxCell>
        <mxCell id="2XDpb6E2xOAsi45T7SNK-80" value="Servicio &amp;nbsp; De almacenamiento cloud" style="text;html=1;strokeColor=none;fillColor=none;align=center;verticalAlign=middle;whiteSpace=wrap;rounded=0;fontSize=16;" parent="1" vertex="1">
          <mxGeometry x="807" y="2484" width="121" height="61" as="geometry" />
        </mxCell>
        <mxCell id="2XDpb6E2xOAsi45T7SNK-85" style="edgeStyle=none;curved=1;rounded=0;orthogonalLoop=1;jettySize=auto;html=1;entryX=0.2;entryY=0.72;entryDx=0;entryDy=0;entryPerimeter=0;fontSize=12;startSize=8;endSize=8;" parent="1" source="2XDpb6E2xOAsi45T7SNK-83" target="2XDpb6E2xOAsi45T7SNK-79" edge="1">
          <mxGeometry relative="1" as="geometry" />
        </mxCell>
        <mxCell id="2XDpb6E2xOAsi45T7SNK-83" value="" style="verticalLabelPosition=bottom;html=1;verticalAlign=top;align=center;strokeColor=none;fillColor=#00BEF2;shape=mxgraph.azure.sql_database_sql_azure;fontSize=16;" parent="1" vertex="1">
          <mxGeometry x="666" y="2456" width="47.5" height="50" as="geometry" />
        </mxCell>
        <mxCell id="2XDpb6E2xOAsi45T7SNK-86" value="Base de daros &amp;nbsp;oracle" style="text;html=1;strokeColor=none;fillColor=none;align=center;verticalAlign=middle;whiteSpace=wrap;rounded=0;fontSize=16;" parent="1" vertex="1">
          <mxGeometry x="641.25" y="2515" width="97" height="33" as="geometry" />
        </mxCell>
        <mxCell id="2XDpb6E2xOAsi45T7SNK-90" style="edgeStyle=none;curved=1;rounded=0;orthogonalLoop=1;jettySize=auto;html=1;fontSize=12;startSize=8;endSize=8;entryX=0.995;entryY=0.59;entryDx=0;entryDy=0;entryPerimeter=0;" parent="1" source="2XDpb6E2xOAsi45T7SNK-87" target="2XDpb6E2xOAsi45T7SNK-79" edge="1">
          <mxGeometry relative="1" as="geometry">
            <mxPoint x="929" y="2438" as="targetPoint" />
          </mxGeometry>
        </mxCell>
        <mxCell id="2XDpb6E2xOAsi45T7SNK-87" value="" style="verticalLabelPosition=bottom;html=1;verticalAlign=top;align=center;strokeColor=none;fillColor=#00BEF2;shape=mxgraph.azure.code_file;pointerEvents=1;fontSize=16;" parent="1" vertex="1">
          <mxGeometry x="1076" y="2432" width="47.5" height="50" as="geometry" />
        </mxCell>
        <mxCell id="2XDpb6E2xOAsi45T7SNK-88" value="Codigo fuente" style="text;html=1;strokeColor=none;fillColor=none;align=center;verticalAlign=middle;whiteSpace=wrap;rounded=0;fontSize=16;" parent="1" vertex="1">
          <mxGeometry x="1072" y="2491" width="60" height="30" as="geometry" />
        </mxCell>
        <mxCell id="2XDpb6E2xOAsi45T7SNK-94" style="edgeStyle=none;curved=1;rounded=0;orthogonalLoop=1;jettySize=auto;html=1;fontSize=12;startSize=8;endSize=8;" parent="1" source="2XDpb6E2xOAsi45T7SNK-93" edge="1">
          <mxGeometry relative="1" as="geometry">
            <mxPoint x="849.4545454545454" y="2449.454545454545" as="targetPoint" />
          </mxGeometry>
        </mxCell>
        <mxCell id="2XDpb6E2xOAsi45T7SNK-93" value="" style="verticalLabelPosition=bottom;html=1;verticalAlign=top;align=center;strokeColor=none;fillColor=#00BEF2;shape=mxgraph.azure.worker_role;fontSize=16;" parent="1" vertex="1">
          <mxGeometry x="662" y="2369" width="50" height="40" as="geometry" />
        </mxCell>
        <mxCell id="2XDpb6E2xOAsi45T7SNK-95" value="API" style="text;html=1;strokeColor=none;fillColor=none;align=center;verticalAlign=middle;whiteSpace=wrap;rounded=0;fontSize=16;" parent="1" vertex="1">
          <mxGeometry x="657" y="2418" width="60" height="30" as="geometry" />
        </mxCell>
        <mxCell id="2XDpb6E2xOAsi45T7SNK-98" style="edgeStyle=none;curved=1;rounded=0;orthogonalLoop=1;jettySize=auto;html=1;fontSize=12;startSize=8;endSize=8;" parent="1" source="2XDpb6E2xOAsi45T7SNK-97" edge="1">
          <mxGeometry relative="1" as="geometry">
            <mxPoint x="894" y="2414" as="targetPoint" />
          </mxGeometry>
        </mxCell>
        <mxCell id="2XDpb6E2xOAsi45T7SNK-97" value="" style="verticalLabelPosition=bottom;html=1;verticalAlign=top;align=center;strokeColor=none;fillColor=#00BEF2;shape=mxgraph.azure.vhd;pointerEvents=1;fontSize=16;" parent="1" vertex="1">
          <mxGeometry x="1152" y="2378" width="40" height="50" as="geometry" />
        </mxCell>
        <mxCell id="2XDpb6E2xOAsi45T7SNK-101" value="Memoria" style="text;html=1;strokeColor=none;fillColor=none;align=center;verticalAlign=middle;whiteSpace=wrap;rounded=0;fontSize=16;" parent="1" vertex="1">
          <mxGeometry x="1146" y="2426.5" width="60" height="40" as="geometry" />
        </mxCell>
        <mxCell id="2XDpb6E2xOAsi45T7SNK-104" style="edgeStyle=none;curved=1;rounded=0;orthogonalLoop=1;jettySize=auto;html=1;fontSize=12;startSize=8;endSize=8;" parent="1" source="2XDpb6E2xOAsi45T7SNK-103" edge="1">
          <mxGeometry relative="1" as="geometry">
            <mxPoint x="893" y="2408" as="targetPoint" />
          </mxGeometry>
        </mxCell>
        <mxCell id="2XDpb6E2xOAsi45T7SNK-103" value="" style="verticalLabelPosition=bottom;html=1;verticalAlign=top;align=center;strokeColor=none;fillColor=#00BEF2;shape=mxgraph.azure.azure_website;pointerEvents=1;fontSize=16;" parent="1" vertex="1">
          <mxGeometry x="1151" y="2279" width="50" height="50" as="geometry" />
        </mxCell>
        <mxCell id="2XDpb6E2xOAsi45T7SNK-105" value="Ancho de banda" style="text;html=1;strokeColor=none;fillColor=none;align=center;verticalAlign=middle;whiteSpace=wrap;rounded=0;fontSize=16;" parent="1" vertex="1">
          <mxGeometry x="1135" y="2341" width="82" height="28" as="geometry" />
        </mxCell>
        <mxCell id="RP1k2u6AIOtiLQb1vxps-5" style="edgeStyle=orthogonalEdgeStyle;rounded=0;orthogonalLoop=1;jettySize=auto;html=1;entryX=0.667;entryY=0.029;entryDx=0;entryDy=0;entryPerimeter=0;" edge="1" parent="1" source="RP1k2u6AIOtiLQb1vxps-4" target="2XDpb6E2xOAsi45T7SNK-79">
          <mxGeometry relative="1" as="geometry">
            <Array as="points">
              <mxPoint x="996" y="2329" />
              <mxPoint x="882" y="2329" />
            </Array>
          </mxGeometry>
        </mxCell>
        <mxCell id="RP1k2u6AIOtiLQb1vxps-4" value="" style="verticalLabelPosition=bottom;html=1;verticalAlign=top;align=center;strokeColor=none;fillColor=#00BEF2;shape=mxgraph.azure.healthy;" vertex="1" parent="1">
          <mxGeometry x="971" y="2234" width="50" height="45" as="geometry" />
        </mxCell>
        <mxCell id="RP1k2u6AIOtiLQb1vxps-6" value="Protocolos de seguridad" style="text;html=1;strokeColor=none;fillColor=none;align=center;verticalAlign=middle;whiteSpace=wrap;rounded=0;" vertex="1" parent="1">
          <mxGeometry x="957.5" y="2279" width="77" height="30" as="geometry" />
        </mxCell>
        <mxCell id="RP1k2u6AIOtiLQb1vxps-9" value="Usuario" style="shape=umlActor;verticalLabelPosition=bottom;verticalAlign=top;html=1;outlineConnect=0;" vertex="1" parent="1">
          <mxGeometry x="731" y="-353" width="30" height="60" as="geometry" />
        </mxCell>
        <mxCell id="RP1k2u6AIOtiLQb1vxps-10" value="" style="endArrow=none;dashed=1;html=1;dashPattern=1 3;strokeWidth=2;rounded=0;" edge="1" parent="1">
          <mxGeometry width="50" height="50" relative="1" as="geometry">
            <mxPoint x="743" y="23" as="sourcePoint" />
            <mxPoint x="746" y="-264" as="targetPoint" />
          </mxGeometry>
        </mxCell>
        <mxCell id="RP1k2u6AIOtiLQb1vxps-11" value="" style="endArrow=none;dashed=1;html=1;dashPattern=1 3;strokeWidth=2;rounded=0;" edge="1" parent="1">
          <mxGeometry width="50" height="50" relative="1" as="geometry">
            <mxPoint x="973" y="21" as="sourcePoint" />
            <mxPoint x="978" y="-267" as="targetPoint" />
          </mxGeometry>
        </mxCell>
        <mxCell id="RP1k2u6AIOtiLQb1vxps-12" value="" style="endArrow=none;dashed=1;html=1;dashPattern=1 3;strokeWidth=2;rounded=0;" edge="1" parent="1" source="RP1k2u6AIOtiLQb1vxps-32">
          <mxGeometry width="50" height="50" relative="1" as="geometry">
            <mxPoint x="861" y="185" as="sourcePoint" />
            <mxPoint x="866" y="-267" as="targetPoint" />
          </mxGeometry>
        </mxCell>
        <mxCell id="RP1k2u6AIOtiLQb1vxps-13" value="" style="endArrow=none;dashed=1;html=1;dashPattern=1 3;strokeWidth=2;rounded=0;" edge="1" parent="1">
          <mxGeometry width="50" height="50" relative="1" as="geometry">
            <mxPoint x="1093" y="24" as="sourcePoint" />
            <mxPoint x="1096" y="-265" as="targetPoint" />
          </mxGeometry>
        </mxCell>
        <mxCell id="RP1k2u6AIOtiLQb1vxps-15" value="" style="dashed=0;outlineConnect=0;html=1;align=center;labelPosition=center;verticalLabelPosition=bottom;verticalAlign=top;shape=mxgraph.weblogos.html5" vertex="1" parent="1">
          <mxGeometry x="836" y="-373" width="52.400000000000006" height="74" as="geometry" />
        </mxCell>
        <mxCell id="RP1k2u6AIOtiLQb1vxps-16" value="Pagina web" style="text;html=1;strokeColor=none;fillColor=none;align=center;verticalAlign=middle;whiteSpace=wrap;rounded=0;" vertex="1" parent="1">
          <mxGeometry x="837" y="-296" width="60" height="30" as="geometry" />
        </mxCell>
        <mxCell id="RP1k2u6AIOtiLQb1vxps-17" value="" style="outlineConnect=0;dashed=0;verticalLabelPosition=bottom;verticalAlign=top;align=center;html=1;shape=mxgraph.aws3.worker;fillColor=#D9A741;gradientColor=none;" vertex="1" parent="1">
          <mxGeometry x="946" y="-355" width="60" height="63" as="geometry" />
        </mxCell>
        <mxCell id="RP1k2u6AIOtiLQb1vxps-18" value="API" style="text;html=1;strokeColor=none;fillColor=none;align=center;verticalAlign=middle;whiteSpace=wrap;rounded=0;" vertex="1" parent="1">
          <mxGeometry x="947" y="-292" width="60" height="30" as="geometry" />
        </mxCell>
        <mxCell id="RP1k2u6AIOtiLQb1vxps-19" value="" style="strokeWidth=2;html=1;shape=mxgraph.flowchart.database;whiteSpace=wrap;" vertex="1" parent="1">
          <mxGeometry x="1067" y="-350" width="60" height="60" as="geometry" />
        </mxCell>
        <mxCell id="RP1k2u6AIOtiLQb1vxps-20" value="Base de datos" style="text;html=1;strokeColor=none;fillColor=none;align=center;verticalAlign=middle;whiteSpace=wrap;rounded=0;" vertex="1" parent="1">
          <mxGeometry x="1064" y="-290" width="60" height="30" as="geometry" />
        </mxCell>
        <mxCell id="RP1k2u6AIOtiLQb1vxps-22" value="" style="endArrow=classic;html=1;rounded=0;startArrow=classic;startFill=1;" edge="1" parent="1">
          <mxGeometry width="50" height="50" relative="1" as="geometry">
            <mxPoint x="747" y="-207" as="sourcePoint" />
            <mxPoint x="863" y="-207" as="targetPoint" />
          </mxGeometry>
        </mxCell>
        <mxCell id="RP1k2u6AIOtiLQb1vxps-23" value="Abre pagina web o realizar gestión" style="text;html=1;strokeColor=none;fillColor=none;align=center;verticalAlign=middle;whiteSpace=wrap;rounded=0;" vertex="1" parent="1">
          <mxGeometry x="768" y="-250" width="84" height="36" as="geometry" />
        </mxCell>
        <mxCell id="RP1k2u6AIOtiLQb1vxps-25" value="" style="endArrow=classic;html=1;rounded=0;startArrow=none;startFill=0;" edge="1" parent="1">
          <mxGeometry width="50" height="50" relative="1" as="geometry">
            <mxPoint x="867" y="-177" as="sourcePoint" />
            <mxPoint x="978" y="-177" as="targetPoint" />
          </mxGeometry>
        </mxCell>
        <mxCell id="RP1k2u6AIOtiLQb1vxps-26" value="Consulta de información" style="text;html=1;strokeColor=none;fillColor=none;align=center;verticalAlign=middle;whiteSpace=wrap;rounded=0;" vertex="1" parent="1">
          <mxGeometry x="884" y="-214" width="70" height="36" as="geometry" />
        </mxCell>
        <mxCell id="RP1k2u6AIOtiLQb1vxps-27" value="" style="endArrow=classic;html=1;rounded=0;startArrow=none;startFill=0;" edge="1" parent="1">
          <mxGeometry width="50" height="50" relative="1" as="geometry">
            <mxPoint x="980" y="-140" as="sourcePoint" />
            <mxPoint x="1091" y="-140" as="targetPoint" />
          </mxGeometry>
        </mxCell>
        <mxCell id="RP1k2u6AIOtiLQb1vxps-28" value="Generación de consulta" style="text;html=1;strokeColor=none;fillColor=none;align=center;verticalAlign=middle;whiteSpace=wrap;rounded=0;" vertex="1" parent="1">
          <mxGeometry x="1002" y="-175" width="70" height="36" as="geometry" />
        </mxCell>
        <mxCell id="RP1k2u6AIOtiLQb1vxps-29" value="" style="endArrow=classic;html=1;rounded=0;startArrow=none;startFill=0;" edge="1" parent="1">
          <mxGeometry width="50" height="50" relative="1" as="geometry">
            <mxPoint x="1091" y="-80" as="sourcePoint" />
            <mxPoint x="978" y="-80" as="targetPoint" />
          </mxGeometry>
        </mxCell>
        <mxCell id="RP1k2u6AIOtiLQb1vxps-30" value="Entrega de datos" style="text;html=1;strokeColor=none;fillColor=none;align=center;verticalAlign=middle;whiteSpace=wrap;rounded=0;" vertex="1" parent="1">
          <mxGeometry x="1002" y="-116" width="70" height="36" as="geometry" />
        </mxCell>
        <mxCell id="RP1k2u6AIOtiLQb1vxps-31" value="" style="endArrow=classic;html=1;rounded=0;startArrow=none;startFill=0;" edge="1" parent="1">
          <mxGeometry width="50" height="50" relative="1" as="geometry">
            <mxPoint x="975.5" y="-34" as="sourcePoint" />
            <mxPoint x="742" y="-34" as="targetPoint" />
          </mxGeometry>
        </mxCell>
        <mxCell id="RP1k2u6AIOtiLQb1vxps-33" value="" style="endArrow=none;dashed=1;html=1;dashPattern=1 3;strokeWidth=2;rounded=0;" edge="1" parent="1" target="RP1k2u6AIOtiLQb1vxps-32">
          <mxGeometry width="50" height="50" relative="1" as="geometry">
            <mxPoint x="865" y="25" as="sourcePoint" />
            <mxPoint x="866" y="-267" as="targetPoint" />
          </mxGeometry>
        </mxCell>
        <mxCell id="RP1k2u6AIOtiLQb1vxps-32" value="Entrega de datos a la pagina de usuario" style="text;html=1;strokeColor=none;fillColor=none;align=center;verticalAlign=middle;whiteSpace=wrap;rounded=0;" vertex="1" parent="1">
          <mxGeometry x="807" y="-65" width="118.5" height="36" as="geometry" />
        </mxCell>
        <mxCell id="RP1k2u6AIOtiLQb1vxps-34" value="" style="endArrow=classic;startArrow=classic;html=1;rounded=0;" edge="1" parent="1">
          <mxGeometry width="50" height="50" relative="1" as="geometry">
            <mxPoint x="737" y="37" as="sourcePoint" />
            <mxPoint x="1096" y="40" as="targetPoint" />
          </mxGeometry>
        </mxCell>
        <mxCell id="RP1k2u6AIOtiLQb1vxps-35" value="Ejecución en milisegundos" style="edgeLabel;html=1;align=center;verticalAlign=middle;resizable=0;points=[];" vertex="1" connectable="0" parent="RP1k2u6AIOtiLQb1vxps-34">
          <mxGeometry x="0.0683" y="1" relative="1" as="geometry">
            <mxPoint as="offset" />
          </mxGeometry>
        </mxCell>
        <mxCell id="RP1k2u6AIOtiLQb1vxps-36" value="Modelo lógico de funcionamiento" style="rounded=1;whiteSpace=wrap;html=1;fontSize=16;" vertex="1" parent="1">
          <mxGeometry x="727" y="-478" width="384" height="60" as="geometry" />
        </mxCell>
      </root>
    </mxGraphModel>
  </diagram>
</mxfile>
